# xmcd CD database file
#
# Track frame offsets:
#	150
#	10279
#	19438
#	35309
#	46853
#	59333
#	84647
#	102733
#	113564
#	132168
#	145077
#	157439
#
# Disc length: 2258 seconds
#
# Revision: 0
# Processed by: cddbd v1.5.2PL0 Copyright (c) Steve Scherf et al.
# Submitted via: CDex 1.70beta2
#
DISCID=a408d00c
DTITLE=Rita Engebretsen og Helge Borglund - Frem fra Glemselen kapittel 12
DYEAR=1983
DGENRE=Schillingsviser
TTITLE0=Elselill
TTITLE1=Hvem har skapt alle blomstene
TTITLE2=Den blindes sang
TTITLE3=I fremmed land jeg går
TTITLE4=På en sjømanns grav
TTITLE5=Den gamle sigøyner
TTITLE6=Solør-visa
TTITLE7=Jeg venter og jeg drømmer
TTITLE8=Den hellige stad
TTITLE9=Der vannliljen blomstrer - (Där näckrosan blommar)
TTITLE10=Sulisvise
TTITLE11=En pike vandret uti en have
EXTD=YEAR: 1983
EXTT0=
EXTT1=
EXTT2=
EXTT3=
EXTT4=
EXTT5=
EXTT6=
EXTT7=
EXTT8=
EXTT9=
EXTT10=
EXTT11=
PLAYORDER=
